<mxfile host="app.diagrams.net" modified="2024-02-09T23:52:16.783Z" agent="Mozilla/5.0 (Macintosh; Intel Mac OS X 10.15; rv:122.0) Gecko/20100101 Firefox/122.0" version="23.1.2" etag="NxTLqXEda8yyM4JHItd9" type="github">
  <diagram name="Page-1" id="3lLZawC0NmhBcoGWiqin">
    <mxGraphModel>
      <root>
        <mxCell id="0" />
        <mxCell id="1" parent="0" />
      </root>
    </mxGraphModel>
  </diagram>
</mxfile>
